<svg xmlns="http://www.w3.org/2000/svg" version="1.1" xmlns:xlink="http://www.w3.org/1999/xlink" xmlns:svgjs="http://svgjs.dev/svgjs" width="2000" height="1247" viewBox="0 0 2000 1247"><g transform="matrix(1,0,0,1,-1.2121212121212466,0.504858299595071)"><svg viewBox="0 0 396 247" data-background-color="#35185a" preserveAspectRatio="xMidYMid meet" height="1247" width="2000" xmlns="http://www.w3.org/2000/svg" xmlns:xlink="http://www.w3.org/1999/xlink"><g id="tight-bounds" transform="matrix(1,0,0,1,0.2400000000000091,-0.09999999999999432)"><svg viewBox="0 0 395.52 247.2" height="247.2" width="395.52"><g><svg></svg></g><g><svg viewBox="0 0 395.52 247.2" height="247.2" width="395.52"><g transform="matrix(1,0,0,1,97.2916776837994,47.215199999999996)"><svg viewBox="0 0 200.93664463240117 152.7696" height="152.7696" width="200.93664463240117"><g><svg viewBox="0 0 233.61534131272262 177.61480147883975" height="152.7696" width="200.93664463240117"><g><svg viewBox="0 0 233.61534131272262 177.61480147883975" height="177.61480147883975" width="233.61534131272262"><g id="textblocktransform"><svg viewBox="0 0 233.61534131272262 177.61480147883975" height="177.61480147883975" width="233.61534131272262" id="textblock"><g><svg viewBox="0 0 233.61534131272262 151.825483872" height="151.825483872" width="233.61534131272262"><g transform="matrix(1,0,0,1,0,0)"><svg width="233.61534131272262" viewBox="1.8 -28 95.4 59" height="151.825483872" data-palette-color="#a437db"><svg></svg><svg></svg><g class="wordmark-text-0" data-fill-palette-color="primary" id="text-0"><path d="M18-24c0.133 0.533 0.2 1.2 0.2 2v0c0 0.767-0.067 1.433-0.2 2v0c0.133 0.533 0.2 1.2 0.2 2v0c0 0.767-0.067 1.433-0.2 2v0h-1.5c0.133 0.533 0.2 1.2 0.2 2v0c0 0.767-0.067 1.433-0.2 2v0h-1.5c0.133 0.533 0.2 1.2 0.2 2v0c0 0.767-0.067 1.433-0.2 2v0h-1c0.133 0.533 0.2 1.2 0.2 2v0c0 0.767-0.067 1.433-0.2 2v0h-2c0.133 0.533 0.2 1.2 0.2 2v0c0 0.767-0.067 1.433-0.2 2v0h-4c-0.133-0.567-0.2-1.233-0.2-2v0c0-0.8 0.067-1.467 0.2-2v0h-2c-0.133-0.567-0.2-1.233-0.2-2v0c0-0.8 0.067-1.467 0.2-2v0h-1c-0.133-0.567-0.2-1.233-0.2-2v0c0-0.8 0.067-1.467 0.2-2v0h-1.5c-0.133-0.567-0.2-1.233-0.2-2v0c0-0.8 0.067-1.467 0.2-2v0h-1.5c-0.133-0.567-0.2-1.233-0.2-2v0c0-0.8 0.067-1.467 0.2-2v0c-0.133-0.567-0.2-1.233-0.2-2v0c0-0.8 0.067-1.467 0.2-2v0c-0.133-0.567-0.2-1.233-0.2-2v0c0-0.8 0.067-1.467 0.2-2v0h4c0.133 0.533 0.2 1.2 0.2 2v0c0 0.767-0.067 1.433-0.2 2v0c0.133 0.533 0.2 1.2 0.2 2v0c0 0.767-0.067 1.433-0.2 2v0c0.133 0.533 0.2 1.2 0.2 2v0c0 0.767-0.067 1.433-0.2 2v0h1.5c0.133 0.533 0.2 1.2 0.2 2v0c0 0.767-0.067 1.433-0.2 2v0h1.5c0.133 0.533 0.2 1.2 0.2 2v0c0 0.767-0.067 1.433-0.2 2v0h2c-0.133-0.567-0.2-1.233-0.2-2v0c0-0.8 0.067-1.467 0.2-2v0h1.5c-0.133-0.567-0.2-1.233-0.2-2v0c0-0.8 0.067-1.467 0.2-2v0h1.5c-0.133-0.567-0.2-1.233-0.2-2v0c0-0.8 0.067-1.467 0.2-2v0c-0.133-0.567-0.2-1.233-0.2-2v0c0-0.8 0.067-1.467 0.2-2v0c-0.133-0.567-0.2-1.233-0.2-2v0c0-0.8 0.067-1.467 0.2-2v0h4c0.133 0.533 0.2 1.2 0.2 2v0c0 0.767-0.067 1.433-0.2 2zM36.5-4h1.5c0.133 0.533 0.2 1.2 0.2 2v0c0 0.767-0.067 1.433-0.2 2v0h-4c-0.133-0.567-0.2-1.233-0.2-2v0c0-0.8 0.067-1.467 0.2-2v0h-1.5c-0.133-0.567-0.2-1.233-0.2-2v0c0-0.8 0.067-1.467 0.2-2v0h-3c-0.133-0.567-0.2-1.233-0.2-2v0c0-0.8 0.067-1.467 0.2-2v0h-3.5c0.133 0.533 0.2 1.2 0.2 2v0c0 0.767-0.067 1.433-0.2 2v0c0.133 0.533 0.2 1.2 0.2 2v0c0 0.767-0.067 1.433-0.2 2v0c0.133 0.533 0.2 1.2 0.2 2v0c0 0.767-0.067 1.433-0.2 2v0h-4c-0.133-0.567-0.2-1.233-0.2-2v0c0-0.8 0.067-1.467 0.2-2v0c-0.133-0.567-0.2-1.233-0.2-2v0c0-0.8 0.067-1.467 0.2-2v0c-0.133-0.567-0.2-1.233-0.2-2v0c0-0.8 0.067-1.467 0.2-2v0c-0.133-0.567-0.2-1.233-0.2-2v0c0-0.8 0.067-1.467 0.2-2v0c-0.133-0.567-0.2-1.233-0.2-2v0c0-0.8 0.067-1.467 0.2-2v0c-0.133-0.567-0.2-1.233-0.2-2v0c0-0.8 0.067-1.467 0.2-2v0c-0.133-0.567-0.2-1.233-0.2-2v0c0-0.8 0.067-1.467 0.2-2v0h4c0.133 0.533 0.2 1.2 0.2 2v0c0 0.767-0.067 1.433-0.2 2v0c0.133 0.533 0.2 1.2 0.2 2v0c0 0.767-0.067 1.433-0.2 2v0c0.133 0.533 0.2 1.2 0.2 2v0c0 0.767-0.067 1.433-0.2 2v0h3.5c-0.133-0.567-0.2-1.233-0.2-2v0c0-0.8 0.067-1.467 0.2-2v0h3c-0.133-0.567-0.2-1.233-0.2-2v0c0-0.8 0.067-1.467 0.2-2v0h1.5c-0.133-0.567-0.2-1.233-0.2-2v0c0-0.8 0.067-1.467 0.2-2v0h4c0.133 0.533 0.2 1.2 0.2 2v0c0 0.767-0.067 1.433-0.2 2v0h-1.5c0.133 0.533 0.2 1.2 0.2 2v0c0 0.767-0.067 1.433-0.2 2v0h-3c0.133 0.533 0.2 1.2 0.2 2v0c0 0.767-0.067 1.433-0.2 2v0h-2.5c0.133 0.533 0.2 1.2 0.2 2v0c0 0.767-0.067 1.433-0.2 2v0h2.5c0.133 0.533 0.2 1.2 0.2 2v0c0 0.767-0.067 1.433-0.2 2v0h3c0.133 0.533 0.2 1.2 0.2 2v0c0 0.767-0.067 1.433-0.2 2zM58.2-18c0 0.767-0.067 1.433-0.2 2v0h-2c0.133 0.533 0.2 1.2 0.2 2v0c0 0.767-0.067 1.433-0.2 2v0h2c0.133 0.533 0.2 1.2 0.2 2v0c0 0.767-0.067 1.433-0.2 2v0c0.133 0.533 0.2 1.2 0.2 2v0c0 0.767-0.067 1.433-0.2 2v0h-2c0.133 0.533 0.2 1.2 0.2 2v0c0 0.767-0.067 1.433-0.2 2v0h-14c-0.133-0.567-0.2-1.233-0.2-2v0c0-0.8 0.067-1.467 0.2-2v0c-0.133-0.567-0.2-1.233-0.2-2v0c0-0.8 0.067-1.467 0.2-2v0c-0.133-0.567-0.2-1.233-0.2-2v0c0-0.8 0.067-1.467 0.2-2v0c-0.133-0.567-0.2-1.233-0.2-2v0c0-0.8 0.067-1.467 0.2-2v0c-0.133-0.567-0.2-1.233-0.2-2v0c0-0.8 0.067-1.467 0.2-2v0c-0.133-0.567-0.2-1.233-0.2-2v0c0-0.8 0.067-1.467 0.2-2v0c-0.133-0.567-0.2-1.233-0.2-2v0c0-0.8 0.067-1.467 0.2-2v0h14c0.133 0.533 0.2 1.2 0.2 2v0c0 0.767-0.067 1.433-0.2 2v0h2c0.133 0.533 0.2 1.2 0.2 2v0c0 0.767-0.067 1.433-0.2 2v0c0.133 0.533 0.2 1.2 0.2 2zM54-16c-0.133-0.567-0.2-1.233-0.2-2v0c0-0.8 0.067-1.467 0.2-2v0c-0.133-0.567-0.2-1.233-0.2-2v0c0-0.8 0.067-1.467 0.2-2v0h-8c0.133 0.533 0.2 1.2 0.2 2v0c0 0.767-0.067 1.433-0.2 2v0c0.133 0.533 0.2 1.2 0.2 2v0c0 0.767-0.067 1.433-0.2 2v0zM54-8c-0.133-0.567-0.2-1.233-0.2-2v0c0-0.8 0.067-1.467 0.2-2v0h-8c0.133 0.533 0.2 1.2 0.2 2v0c0 0.767-0.067 1.433-0.2 2v0c0.133 0.533 0.2 1.2 0.2 2v0c0 0.767-0.067 1.433-0.2 2v0h8c-0.133-0.567-0.2-1.233-0.2-2v0c0-0.8 0.067-1.467 0.2-2zM77.2-18c0 0.767-0.067 1.433-0.2 2v0h-2.5c0.133 0.533 0.2 1.2 0.2 2v0c0 0.767-0.067 1.433-0.2 2v0h-2.5c0.133 0.533 0.2 1.2 0.2 2v0c0 0.767-0.067 1.433-0.2 2v0h-2.5c0.133 0.533 0.2 1.2 0.2 2v0c0 0.767-0.067 1.433-0.2 2v0h7.5c0.133 0.533 0.2 1.2 0.2 2v0c0 0.767-0.067 1.433-0.2 2v0h-14c-0.133-0.567-0.2-1.233-0.2-2v0c0-0.8 0.067-1.467 0.2-2v0h2.5c-0.133-0.567-0.2-1.233-0.2-2v0c0-0.8 0.067-1.467 0.2-2v0h2.5c-0.133-0.567-0.2-1.233-0.2-2v0c0-0.8 0.067-1.467 0.2-2v0h2.5c-0.133-0.567-0.2-1.233-0.2-2v0c0-0.8 0.067-1.467 0.2-2v0h2.5c-0.133-0.567-0.2-1.233-0.2-2v0c0-0.8 0.067-1.467 0.2-2v0c-0.133-0.567-0.2-1.233-0.2-2v0c0-0.8 0.067-1.467 0.2-2v0h-7c0.133 0.533 0.2 1.2 0.2 2v0c0 0.767-0.067 1.433-0.2 2v0h-3c-0.133-0.567-0.2-1.233-0.2-2v0c0-0.8 0.067-1.467 0.2-2v0h2c-0.133-0.567-0.2-1.233-0.2-2v0c0-0.8 0.067-1.467 0.2-2v0h10c0.133 0.533 0.2 1.2 0.2 2v0c0 0.767-0.067 1.433-0.2 2v0h2c0.133 0.533 0.2 1.2 0.2 2v0c0 0.767-0.067 1.433-0.2 2v0c0.133 0.533 0.2 1.2 0.2 2zM97.2-18c0 0.767-0.067 1.433-0.2 2v0h-2.5c0.133 0.533 0.2 1.2 0.2 2v0c0 0.767-0.067 1.433-0.2 2v0h-2.5c0.133 0.533 0.2 1.2 0.2 2v0c0 0.767-0.067 1.433-0.2 2v0h-2.5c0.133 0.533 0.2 1.2 0.2 2v0c0 0.767-0.067 1.433-0.2 2v0h7.5c0.133 0.533 0.2 1.2 0.2 2v0c0 0.767-0.067 1.433-0.2 2v0h-14c-0.133-0.567-0.2-1.233-0.2-2v0c0-0.8 0.067-1.467 0.2-2v0h2.5c-0.133-0.567-0.2-1.233-0.2-2v0c0-0.8 0.067-1.467 0.2-2v0h2.5c-0.133-0.567-0.2-1.233-0.2-2v0c0-0.8 0.067-1.467 0.2-2v0h2.5c-0.133-0.567-0.2-1.233-0.2-2v0c0-0.8 0.067-1.467 0.2-2v0h2.5c-0.133-0.567-0.2-1.233-0.2-2v0c0-0.8 0.067-1.467 0.2-2v0c-0.133-0.567-0.2-1.233-0.2-2v0c0-0.8 0.067-1.467 0.2-2v0h-7c0.133 0.533 0.2 1.2 0.2 2v0c0 0.767-0.067 1.433-0.2 2v0h-3c-0.133-0.567-0.2-1.233-0.2-2v0c0-0.8 0.067-1.467 0.2-2v0h2c-0.133-0.567-0.2-1.233-0.2-2v0c0-0.8 0.067-1.467 0.2-2v0h10c0.133 0.533 0.2 1.2 0.2 2v0c0 0.767-0.067 1.433-0.2 2v0h2c0.133 0.533 0.2 1.2 0.2 2v0c0 0.767-0.067 1.433-0.2 2v0c0.133 0.533 0.2 1.2 0.2 2z" fill="#a437db" fill-rule="nonzero" stroke="none" stroke-width="1" stroke-linecap="butt" stroke-linejoin="miter" stroke-miterlimit="10" stroke-dasharray="" stroke-dashoffset="0" font-family="none" font-weight="none" font-size="none" text-anchor="none" style="mix-blend-mode: normal" data-fill-palette-color="primary" opacity="1"></path><path d="M37.2 5c0 0.767-0.067 1.433-0.2 2v0h-6c0.133 0.533 0.2 1.2 0.2 2v0c0 0.767-0.067 1.433-0.2 2v0c0.133 0.533 0.2 1.2 0.2 2v0c0 0.767-0.067 1.433-0.2 2v0c0.133 0.533 0.2 1.2 0.2 2v0c0 0.767-0.067 1.433-0.2 2v0c0.133 0.533 0.2 1.2 0.2 2v0c0 0.767-0.067 1.433-0.2 2v0c0.133 0.533 0.2 1.2 0.2 2v0c0 0.767-0.067 1.433-0.2 2v0c0.133 0.533 0.2 1.2 0.2 2v0c0 0.767-0.067 1.433-0.2 2v0h-4c-0.133-0.567-0.2-1.233-0.2-2v0c0-0.8 0.067-1.467 0.2-2v0c-0.133-0.567-0.2-1.233-0.2-2v0c0-0.8 0.067-1.467 0.2-2v0c-0.133-0.567-0.2-1.233-0.2-2v0c0-0.8 0.067-1.467 0.2-2v0c-0.133-0.567-0.2-1.233-0.2-2v0c0-0.8 0.067-1.467 0.2-2v0c-0.133-0.567-0.2-1.233-0.2-2v0c0-0.8 0.067-1.467 0.2-2v0c-0.133-0.567-0.2-1.233-0.2-2v0c0-0.8 0.067-1.467 0.2-2v0h-6c-0.133-0.567-0.2-1.233-0.2-2v0c0-0.8 0.067-1.467 0.2-2v0h16c0.133 0.533 0.2 1.2 0.2 2zM55 19h-8c0.133 0.533 0.2 1.2 0.2 2v0c0 0.767-0.067 1.433-0.2 2v0c0.133 0.533 0.2 1.2 0.2 2v0c0 0.767-0.067 1.433-0.2 2v0h8c0.133 0.533 0.2 1.2 0.2 2v0c0 0.767-0.067 1.433-0.2 2v0h-12c-0.133-0.567-0.2-1.233-0.2-2v0c0-0.8 0.067-1.467 0.2-2v0c-0.133-0.567-0.2-1.233-0.2-2v0c0-0.8 0.067-1.467 0.2-2v0c-0.133-0.567-0.2-1.233-0.2-2v0c0-0.8 0.067-1.467 0.2-2v0c-0.133-0.567-0.2-1.233-0.2-2v0c0-0.8 0.067-1.467 0.2-2v0c-0.133-0.567-0.2-1.233-0.2-2v0c0-0.8 0.067-1.467 0.2-2v0c-0.133-0.567-0.2-1.233-0.2-2v0c0-0.8 0.067-1.467 0.2-2v0c-0.133-0.567-0.2-1.233-0.2-2v0c0-0.8 0.067-1.467 0.2-2v0h12c0.133 0.533 0.2 1.2 0.2 2v0c0 0.767-0.067 1.433-0.2 2v0h-8c0.133 0.533 0.2 1.2 0.2 2v0c0 0.767-0.067 1.433-0.2 2v0c0.133 0.533 0.2 1.2 0.2 2v0c0 0.767-0.067 1.433-0.2 2v0h8c0.133 0.533 0.2 1.2 0.2 2v0c0 0.767-0.067 1.433-0.2 2zM77.2 25c0 0.767-0.067 1.433-0.2 2v0c0.133 0.533 0.2 1.2 0.2 2v0c0 0.767-0.067 1.433-0.2 2v0h-4c-0.133-0.567-0.2-1.233-0.2-2v0c0-0.8 0.067-1.467 0.2-2v0c-0.133-0.567-0.2-1.233-0.2-2v0c0-0.8 0.067-1.467 0.2-2v0h-8c0.133 0.533 0.2 1.2 0.2 2v0c0 0.767-0.067 1.433-0.2 2v0c0.133 0.533 0.2 1.2 0.2 2v0c0 0.767-0.067 1.433-0.2 2v0h-4c-0.133-0.567-0.2-1.233-0.2-2v0c0-0.8 0.067-1.467 0.2-2v0c-0.133-0.567-0.2-1.233-0.2-2v0c0-0.8 0.067-1.467 0.2-2v0h1.5c-0.133-0.567-0.2-1.233-0.2-2v0c0-0.8 0.067-1.467 0.2-2v0c-0.133-0.567-0.2-1.233-0.2-2v0c0-0.8 0.067-1.467 0.2-2v0h1c-0.133-0.567-0.2-1.233-0.2-2v0c0-0.8 0.067-1.467 0.2-2v0h1.5c-0.133-0.567-0.2-1.233-0.2-2v0c0-0.8 0.067-1.467 0.2-2v0h1c-0.133-0.567-0.2-1.233-0.2-2v0c0-0.8 0.067-1.467 0.2-2v0h6c0.133 0.533 0.2 1.2 0.2 2v0c0 0.767-0.067 1.433-0.2 2v0h1c0.133 0.533 0.2 1.2 0.2 2v0c0 0.767-0.067 1.433-0.2 2v0h1.5c0.133 0.533 0.2 1.2 0.2 2v0c0 0.767-0.067 1.433-0.2 2v0h1c0.133 0.533 0.2 1.2 0.2 2v0c0 0.767-0.067 1.433-0.2 2v0c0.133 0.533 0.2 1.2 0.2 2v0c0 0.767-0.067 1.433-0.2 2v0h1.5c0.133 0.533 0.2 1.2 0.2 2zM71.5 19c-0.133-0.567-0.2-1.233-0.2-2v0c0-0.8 0.067-1.467 0.2-2v0h-1c-0.133-0.567-0.2-1.233-0.2-2v0c0-0.8 0.067-1.467 0.2-2v0h-3c0.133 0.533 0.2 1.2 0.2 2v0c0 0.767-0.067 1.433-0.2 2v0h-1c0.133 0.533 0.2 1.2 0.2 2v0c0 0.767-0.067 1.433-0.2 2v0zM97 7c0.133 0.533 0.2 1.2 0.2 2v0c0 0.767-0.067 1.433-0.2 2v0c0.133 0.533 0.2 1.2 0.2 2v0c0 0.767-0.067 1.433-0.2 2v0c0.133 0.533 0.2 1.2 0.2 2v0c0 0.767-0.067 1.433-0.2 2v0c0.133 0.533 0.2 1.2 0.2 2v0c0 0.767-0.067 1.433-0.2 2v0c0.133 0.533 0.2 1.2 0.2 2v0c0 0.767-0.067 1.433-0.2 2v0c0.133 0.533 0.2 1.2 0.2 2v0c0 0.767-0.067 1.433-0.2 2v0h-4c-0.133-0.567-0.2-1.233-0.2-2v0c0-0.8 0.067-1.467 0.2-2v0c-0.133-0.567-0.2-1.233-0.2-2v0c0-0.8 0.067-1.467 0.2-2v0c-0.133-0.567-0.2-1.233-0.2-2v0c0-0.8 0.067-1.467 0.2-2v0c-0.133-0.567-0.2-1.233-0.2-2v0c0-0.8 0.067-1.467 0.2-2v0c-0.133-0.567-0.2-1.233-0.2-2v0c0-0.8 0.067-1.467 0.2-2v0h-1.5c0.133 0.533 0.2 1.2 0.2 2v0c0 0.767-0.067 1.433-0.2 2v0c0.133 0.533 0.2 1.2 0.2 2v0c0 0.767-0.067 1.433-0.2 2v0h-1c0.133 0.533 0.2 1.2 0.2 2v0c0 0.767-0.067 1.433-0.2 2v0c0.133 0.533 0.2 1.2 0.2 2v0c0 0.767-0.067 1.433-0.2 2v0h-3c-0.133-0.567-0.2-1.233-0.2-2v0c0-0.8 0.067-1.467 0.2-2v0c-0.133-0.567-0.2-1.233-0.2-2v0c0-0.8 0.067-1.467 0.2-2v0h-1c-0.133-0.567-0.2-1.233-0.2-2v0c0-0.8 0.067-1.467 0.2-2v0c-0.133-0.567-0.2-1.233-0.2-2v0c0-0.8 0.067-1.467 0.2-2v0h-1.5c0.133 0.533 0.2 1.2 0.2 2v0c0 0.767-0.067 1.433-0.2 2v0c0.133 0.533 0.2 1.2 0.2 2v0c0 0.767-0.067 1.433-0.2 2v0c0.133 0.533 0.2 1.2 0.2 2v0c0 0.767-0.067 1.433-0.2 2v0c0.133 0.533 0.2 1.2 0.2 2v0c0 0.767-0.067 1.433-0.2 2v0c0.133 0.533 0.2 1.2 0.2 2v0c0 0.767-0.067 1.433-0.2 2v0h-4c-0.133-0.567-0.2-1.233-0.2-2v0c0-0.8 0.067-1.467 0.2-2v0c-0.133-0.567-0.2-1.233-0.2-2v0c0-0.8 0.067-1.467 0.2-2v0c-0.133-0.567-0.2-1.233-0.2-2v0c0-0.8 0.067-1.467 0.2-2v0c-0.133-0.567-0.2-1.233-0.2-2v0c0-0.8 0.067-1.467 0.2-2v0c-0.133-0.567-0.2-1.233-0.2-2v0c0-0.8 0.067-1.467 0.2-2v0c-0.133-0.567-0.2-1.233-0.2-2v0c0-0.8 0.067-1.467 0.2-2v0c-0.133-0.567-0.2-1.233-0.2-2v0c0-0.8 0.067-1.467 0.2-2v0h5c0.133 0.533 0.2 1.2 0.2 2v0c0 0.767-0.067 1.433-0.2 2v0h1.5c0.133 0.533 0.2 1.2 0.2 2v0c0 0.767-0.067 1.433-0.2 2v0h0.75c0.133 0.533 0.2 1.2 0.2 2v0c0 0.767-0.067 1.433-0.2 2v0h1.5c-0.133-0.567-0.2-1.233-0.2-2v0c0-0.8 0.067-1.467 0.2-2v0h0.75c-0.133-0.567-0.2-1.233-0.2-2v0c0-0.8 0.067-1.467 0.2-2v0h1.5c-0.133-0.567-0.2-1.233-0.2-2v0c0-0.8 0.067-1.467 0.2-2v0h5c0.133 0.533 0.2 1.2 0.2 2v0c0 0.767-0.067 1.433-0.2 2z" fill="#a437db" fill-rule="nonzero" stroke="none" stroke-width="1" stroke-linecap="butt" stroke-linejoin="miter" stroke-miterlimit="10" stroke-dasharray="" stroke-dashoffset="0" font-family="none" font-weight="none" font-size="none" text-anchor="none" style="mix-blend-mode: normal" data-fill-palette-color="primary" opacity="1"></path></g></svg></g></svg></g><g transform="matrix(1,0,0,1,0,168.01235293741703)"><svg viewBox="0 0 157.5735477154314 9.602448541422728" height="9.602448541422728" width="157.5735477154314"><g transform="matrix(1,0,0,1,0,0)"><svg width="157.5735477154314" viewBox="3.98 -41.19 774.34 47.199999999999996" height="9.602448541422728" data-palette-color="#a437db"><path d="M13.67-35.16L13.67 0 3.98 0 3.98-35.16 13.67-35.16ZM52.85-17.14L48.19 0 40.77 0 33.05-28.2 41.3-28.2 46.14-8.42 50.17-28.2 57.59-28.2 62.52-7.89 67.28-28.2 72.99-28.2 64.45 0 57.03 0 52.85-17.14ZM85.86-35.01L85.86-35.01Q85.86-34.08 85.5-33.25 85.15-32.42 84.54-31.81 83.93-31.2 83.1-30.85 82.27-30.49 81.34-30.49L81.34-30.49Q80.41-30.49 79.59-30.85 78.78-31.2 78.17-31.81 77.56-32.42 77.2-33.25 76.85-34.08 76.85-35.01L76.85-35.01Q76.85-35.94 77.2-36.76 77.56-37.57 78.17-38.18 78.78-38.79 79.59-39.15 80.41-39.5 81.34-39.5L81.34-39.5Q82.27-39.5 83.1-39.15 83.93-38.79 84.54-38.18 85.15-37.57 85.5-36.76 85.86-35.94 85.86-35.01ZM85.49-28.17L85.49 0 77.21 0 77.21-28.17 85.49-28.17ZM116.66-9.01L116.66-9.01Q116.66-7.15 116.13-5.71 115.59-4.27 114.66-3.21 113.74-2.15 112.47-1.43 111.2-0.71 109.74-0.27 108.29 0.17 106.7 0.37 105.12 0.56 103.55 0.56L103.55 0.56Q101.45 0.56 99.84 0.29 98.23 0.02 96.77-0.57 95.3-1.17 93.85-2.12 92.4-3.08 90.62-4.44L90.62-4.44 95.42-8.37Q96.08-7.13 97.17-6.12 98.26-5.1 99.43-4.37 100.6-3.64 101.7-3.25 102.8-2.86 103.48-2.86L103.48-2.86Q104.04-2.86 104.75-2.89 105.46-2.93 106.19-3.04 106.92-3.15 107.63-3.37 108.34-3.59 108.89-3.97 109.44-4.35 109.77-4.92 110.1-5.49 110.1-6.3L110.1-6.3Q110.1-7.13 109.67-7.75 109.24-8.37 108.56-8.84 107.88-9.3 107-9.62 106.12-9.94 105.23-10.18 104.34-10.42 103.51-10.61 102.68-10.79 102.07-10.96L102.07-10.96Q100.94-11.28 99.7-11.61 98.45-11.94 97.23-12.37 96.01-12.79 94.9-13.38 93.79-13.96 92.95-14.78 92.1-15.6 91.6-16.71 91.1-17.82 91.1-19.31L91.1-19.31Q91.1-22.05 92.19-23.89 93.28-25.73 95.06-26.84 96.84-27.95 99.11-28.42 101.38-28.88 103.73-28.88L103.73-28.88Q105.34-28.88 107.12-28.55 108.9-28.22 110.59-27.58 112.27-26.93 113.74-26 115.2-25.07 116.18-23.88L116.18-23.88 111.37-19.92Q110.83-21.39 109.96-22.44 109.1-23.49 108.08-24.16 107.07-24.83 106.01-25.15 104.95-25.46 104.04-25.46L104.04-25.46Q103.16-25.46 102.07-25.39 100.97-25.32 100-24.98 99.04-24.63 98.37-23.94 97.7-23.24 97.7-22.02L97.7-22.02Q97.7-21.14 98.1-20.52 98.5-19.9 99.16-19.45 99.82-18.99 100.66-18.69 101.5-18.38 102.38-18.15 103.26-17.92 104.09-17.75 104.92-17.58 105.58-17.38L105.58-17.38Q106.7-17.07 107.96-16.74 109.22-16.41 110.44-15.98 111.66-15.55 112.8-14.98 113.93-14.4 114.78-13.57 115.64-12.74 116.15-11.63 116.66-10.52 116.66-9.01ZM150.7-16.16L150.7-16.16Q150.7-13.31 150-10.21 149.3-7.1 148.06-4.13 146.81-1.15 145.08 1.48 143.35 4.1 141.27 6.01L141.27 6.01 138.17 4.32Q138.83 3.1 139.42 1.59 140 0.07 140.48-1.62 140.95-3.32 141.33-5.13 141.71-6.93 141.97-8.7 142.22-10.47 142.36-12.15 142.49-13.82 142.49-15.26L142.49-15.26Q142.49-16.21 142.42-17.3 142.35-18.38 142.11-19.47 141.88-20.56 141.49-21.56 141.1-22.56 140.45-23.32 139.81-24.07 138.89-24.54 137.98-25 136.73-25L136.73-25Q135.51-25 134.56-24.45 133.61-23.9 132.87-23.01 132.14-22.12 131.62-20.97 131.09-19.82 130.76-18.62 130.43-17.41 130.29-16.24 130.14-15.06 130.14-14.14L130.14-14.14 130.14 0 121.86 0 121.86-38.57 130.11-38.57 130.11-24.05Q131.7-26.37 134.01-27.62 136.32-28.88 139.12-28.88L139.12-28.88Q142.05-28.88 144.23-27.93 146.4-26.98 147.84-25.28 149.28-23.58 149.99-21.25 150.7-18.92 150.7-16.16ZM180.52-35.16L180.52 0 170.83 0 170.83-35.16 180.52-35.16ZM228.13-21.22L228.13-21.22 224.56-19.8Q223.71-22.49 221.71-23.93 219.7-25.37 216.9-25.37L216.9-25.37Q215.38-25.37 214.2-24.89 213.01-24.41 212.12-23.58 211.23-22.75 210.61-21.66 209.99-20.56 209.6-19.31 209.21-18.07 209.04-16.74 208.86-15.41 208.86-14.16L208.86-14.16Q208.86-12.82 209.01-11.45 209.16-10.08 209.51-8.83 209.87-7.57 210.45-6.48 211.04-5.4 211.93-4.59 212.82-3.78 214.05-3.32 215.29-2.86 216.9-2.86L216.9-2.86Q218.19-2.86 219.36-3.25 220.53-3.64 221.51-4.35 222.49-5.05 223.24-6.03 224-7.01 224.44-8.2L224.44-8.2 228.03-6.88Q227.22-4.96 225.89-3.55 224.56-2.15 222.88-1.23 221.19-0.32 219.26 0.12 217.34 0.56 215.36 0.56L215.36 0.56Q212.16 0.56 209.43-0.52 206.69-1.61 204.7-3.58 202.71-5.54 201.59-8.24 200.47-10.94 200.47-14.16L200.47-14.16Q200.47-17.41 201.58-20.12 202.69-22.83 204.67-24.78 206.64-26.73 209.38-27.81 212.11-28.88 215.36-28.88L215.36-28.88Q217.41-28.88 219.36-28.43 221.32-27.98 222.99-27.04 224.66-26.1 225.99-24.66 227.32-23.22 228.13-21.22ZM262.79-14.16L262.79-14.16Q262.79-11.96 262.21-10.03 261.62-8.11 260.58-6.47 259.55-4.83 258.08-3.53 256.62-2.22 254.87-1.32 253.12-0.42 251.13 0.07 249.14 0.56 247.05 0.56L247.05 0.56Q244.95 0.56 242.97 0.07 240.99-0.42 239.25-1.32 237.5-2.22 236.03-3.53 234.57-4.83 233.53-6.47 232.49-8.11 231.91-10.05 231.32-11.99 231.32-14.16L231.32-14.16Q231.32-16.33 231.91-18.27 232.49-20.21 233.53-21.85 234.57-23.49 236.03-24.79 237.5-26.1 239.25-27 240.99-27.91 242.97-28.39 244.95-28.88 247.05-28.88L247.05-28.88Q249.14-28.88 251.13-28.39 253.12-27.91 254.87-27 256.62-26.1 258.08-24.79 259.55-23.49 260.58-21.85 261.62-20.21 262.21-18.27 262.79-16.33 262.79-14.16ZM254.39-14.16L254.39-14.16Q254.39-15.33 254.26-16.64 254.13-17.94 253.81-19.2 253.49-20.46 252.94-21.62 252.39-22.78 251.59-23.65 250.78-24.51 249.66-25.04 248.53-25.56 247.05-25.56L247.05-25.56Q245.63-25.56 244.53-25.02 243.43-24.49 242.61-23.6 241.8-22.71 241.25-21.53 240.7-20.36 240.36-19.1 240.01-17.85 239.87-16.56 239.72-15.28 239.72-14.16L239.72-14.16Q239.72-13.04 239.87-11.76 240.01-10.47 240.36-9.2 240.7-7.93 241.25-6.77 241.8-5.62 242.61-4.72 243.43-3.83 244.53-3.3 245.63-2.76 247.05-2.76L247.05-2.76Q248.51-2.76 249.63-3.28 250.76-3.81 251.57-4.69 252.39-5.57 252.93-6.71 253.47-7.86 253.8-9.13 254.13-10.4 254.26-11.69 254.39-12.99 254.39-14.16ZM266.55-12.06L266.55-12.06Q266.55-13.99 266.88-16.06 267.21-18.14 267.83-20.21 268.45-22.29 269.33-24.32 270.21-26.34 271.31-28.2L271.31-28.2 277.34-28.2Q276.73-26.37 276.25-24.38 275.78-22.39 275.45-20.4 275.12-18.41 274.94-16.5 274.75-14.6 274.75-12.96L274.75-12.96Q274.75-12.01 274.84-10.93 274.92-9.84 275.14-8.75 275.36-7.67 275.77-6.67 276.17-5.66 276.8-4.9 277.44-4.13 278.35-3.67 279.27-3.22 280.51-3.22L280.51-3.22Q281.74-3.22 282.7-3.77 283.66-4.32 284.4-5.21 285.13-6.1 285.64-7.25 286.15-8.4 286.48-9.61 286.81-10.82 286.97-11.98 287.13-13.13 287.13-14.06L287.13-14.06 287.13-28.2 295.38-28.2 295.38 0 292.21 0 288.42-6.57Q287.72-4.93 286.7-3.6 285.69-2.27 284.4-1.32 283.1-0.37 281.53 0.15 279.95 0.66 278.12 0.66L278.12 0.66Q275.19 0.66 273.02-0.29 270.85-1.25 269.41-2.93 267.97-4.61 267.26-6.95 266.55-9.28 266.55-12.06ZM310.52-32.62L310.52 0 302.26 0 302.26-41.19 305.44-41.19 310.52-32.62ZM345.82-38.57L345.82 0 342.64 0 338.98-6.13Q338.44-4.59 337.5-3.34 336.56-2.1 335.33-1.21 334.1-0.32 332.62 0.17 331.14 0.66 329.51 0.66L329.51 0.66Q326.29 0.66 323.75-0.49 321.21-1.64 319.45-3.63 317.69-5.62 316.76-8.3 315.84-10.99 315.84-14.06L315.84-14.06Q315.84-17.14 316.76-19.82 317.69-22.51 319.45-24.49 321.21-26.46 323.75-27.61 326.29-28.76 329.51-28.76L329.51-28.76Q331.97-28.76 334.04-27.81 336.1-26.86 337.57-24.83L337.57-24.83 337.57-38.57 345.82-38.57ZM337.52-14.06L337.52-14.06Q337.52-15.04 337.37-16.21 337.22-17.38 336.91-18.58 336.59-19.78 336.08-20.9 335.56-22.02 334.82-22.9 334.07-23.78 333.09-24.3 332.1-24.83 330.83-24.83L330.83-24.83Q329.44-24.83 328.41-24.33 327.38-23.83 326.65-22.99 325.92-22.14 325.44-21.04 324.97-19.95 324.7-18.75 324.43-17.55 324.32-16.35 324.21-15.14 324.21-14.06L324.21-14.06Q324.21-12.99 324.32-11.78 324.43-10.57 324.7-9.38 324.97-8.18 325.44-7.07 325.92-5.96 326.65-5.11 327.38-4.27 328.41-3.77 329.44-3.27 330.83-3.27L330.83-3.27Q332.22-3.27 333.27-3.76 334.32-4.25 335.06-5.09 335.81-5.93 336.28-7.02 336.76-8.11 337.03-9.31 337.3-10.52 337.41-11.74 337.52-12.96 337.52-14.06ZM391.12-9.01L391.12-9.01Q391.12-7.15 390.59-5.71 390.05-4.27 389.12-3.21 388.19-2.15 386.93-1.43 385.66-0.71 384.2-0.27 382.75 0.17 381.16 0.37 379.58 0.56 378.01 0.56L378.01 0.56Q375.91 0.56 374.3 0.29 372.69 0.02 371.23-0.57 369.76-1.17 368.31-2.12 366.86-3.08 365.07-4.44L365.07-4.44 369.88-8.37Q370.54-7.13 371.63-6.12 372.72-5.1 373.89-4.37 375.06-3.64 376.16-3.25 377.26-2.86 377.94-2.86L377.94-2.86Q378.5-2.86 379.21-2.89 379.92-2.93 380.65-3.04 381.38-3.15 382.09-3.37 382.8-3.59 383.35-3.97 383.9-4.35 384.23-4.92 384.56-5.49 384.56-6.3L384.56-6.3Q384.56-7.13 384.13-7.75 383.7-8.37 383.02-8.84 382.34-9.3 381.46-9.62 380.58-9.94 379.69-10.18 378.8-10.42 377.97-10.61 377.14-10.79 376.53-10.96L376.53-10.96Q375.4-11.28 374.16-11.61 372.91-11.94 371.69-12.37 370.47-12.79 369.36-13.38 368.25-13.96 367.41-14.78 366.56-15.6 366.06-16.71 365.56-17.82 365.56-19.31L365.56-19.31Q365.56-22.05 366.65-23.89 367.74-25.73 369.52-26.84 371.3-27.95 373.57-28.42 375.84-28.88 378.19-28.88L378.19-28.88Q379.8-28.88 381.58-28.55 383.36-28.22 385.05-27.58 386.73-26.93 388.19-26 389.66-25.07 390.64-23.88L390.64-23.88 385.83-19.92Q385.29-21.39 384.42-22.44 383.56-23.49 382.54-24.16 381.53-24.83 380.47-25.15 379.41-25.46 378.5-25.46L378.5-25.46Q377.62-25.46 376.53-25.39 375.43-25.32 374.46-24.98 373.5-24.63 372.83-23.94 372.15-23.24 372.15-22.02L372.15-22.02Q372.15-21.14 372.56-20.52 372.96-19.9 373.62-19.45 374.28-18.99 375.12-18.69 375.96-18.38 376.84-18.15 377.72-17.92 378.55-17.75 379.38-17.58 380.04-17.38L380.04-17.38Q381.16-17.07 382.42-16.74 383.68-16.41 384.9-15.98 386.12-15.55 387.25-14.98 388.39-14.4 389.24-13.57 390.1-12.74 390.61-11.63 391.12-10.52 391.12-9.01ZM394.88-12.06L394.88-12.06Q394.88-13.99 395.21-16.06 395.54-18.14 396.16-20.21 396.79-22.29 397.67-24.32 398.54-26.34 399.64-28.2L399.64-28.2 405.67-28.2Q405.06-26.37 404.59-24.38 404.11-22.39 403.78-20.4 403.45-18.41 403.27-16.5 403.09-14.6 403.09-12.96L403.09-12.96Q403.09-12.01 403.17-10.93 403.26-9.84 403.48-8.75 403.7-7.67 404.1-6.67 404.5-5.66 405.14-4.9 405.77-4.13 406.69-3.67 407.6-3.22 408.85-3.22L408.85-3.22Q410.07-3.22 411.03-3.77 412-4.32 412.73-5.21 413.46-6.1 413.97-7.25 414.49-8.4 414.82-9.61 415.15-10.82 415.3-11.98 415.46-13.13 415.46-14.06L415.46-14.06 415.46-28.2 423.71-28.2 423.71 0 420.54 0 416.76-6.57Q416.05-4.93 415.04-3.6 414.02-2.27 412.73-1.32 411.43-0.37 409.86 0.15 408.29 0.66 406.45 0.66L406.45 0.66Q403.52 0.66 401.35-0.29 399.18-1.25 397.74-2.93 396.3-4.61 395.59-6.95 394.88-9.28 394.88-12.06ZM454.57-25.71L454.57-25.71 449.93-18.02Q449.64-18.99 449.18-20.21 448.71-21.44 448.03-22.5 447.35-23.56 446.39-24.28 445.44-25 444.2-25L444.2-25Q443.05-25 442.21-24.41 441.36-23.83 440.78-22.89 440.19-21.95 439.81-20.76 439.44-19.58 439.23-18.37 439.02-17.16 438.95-16.05 438.87-14.94 438.87-14.14L438.87-14.14 438.87 0 430.6 0 430.6-28.2 433.77-28.2 437.12-21.63Q437.8-23.22 438.68-24.55 439.56-25.88 440.7-26.84 441.85-27.81 443.3-28.34 444.76-28.88 446.59-28.88L446.59-28.88Q447.54-28.88 448.71-28.72 449.88-28.56 451.01-28.19 452.13-27.81 453.08-27.2 454.03-26.59 454.57-25.71ZM483.62-28.2L472.51 0 465.09 0 454.84-28.2 463.09-28.2 470.61-5.74 477.91-28.2 483.62-28.2ZM495.78-35.01L495.78-35.01Q495.78-34.08 495.42-33.25 495.07-32.42 494.46-31.81 493.85-31.2 493.02-30.85 492.19-30.49 491.26-30.49L491.26-30.49Q490.33-30.49 489.52-30.85 488.7-31.2 488.09-31.81 487.48-32.42 487.12-33.25 486.77-34.08 486.77-35.01L486.77-35.01Q486.77-35.94 487.12-36.76 487.48-37.57 488.09-38.18 488.7-38.79 489.52-39.15 490.33-39.5 491.26-39.5L491.26-39.5Q492.19-39.5 493.02-39.15 493.85-38.79 494.46-38.18 495.07-37.57 495.42-36.76 495.78-35.94 495.78-35.01ZM495.41-28.17L495.41 0 487.14 0 487.14-28.17 495.41-28.17ZM527.93-28.2L516.82 0 509.4 0 499.14-28.2 507.4-28.2 514.92-5.74 522.22-28.2 527.93-28.2ZM537.64-13.38L537.64-13.38Q539.16-13.04 540.67-12.84 542.18-12.65 543.72-12.65L543.72-12.65Q545.33-12.65 546.71-12.95 548.09-13.26 549.11-13.98 550.12-14.7 550.7-15.89 551.29-17.09 551.29-18.87L551.29-18.87Q551.29-20.31 550.9-21.51 550.51-22.71 549.74-23.56 548.97-24.41 547.85-24.89 546.72-25.37 545.24-25.37L545.24-25.37Q543.84-25.37 542.73-24.85 541.62-24.34 540.78-23.47 539.94-22.61 539.34-21.46 538.74-20.31 538.35-19.07 537.96-17.82 537.79-16.55 537.62-15.28 537.62-14.16L537.62-14.16Q537.62-13.96 537.62-13.77 537.62-13.57 537.64-13.38ZM557.98-18.95L557.98-18.95Q557.98-17.21 557.42-15.86 556.86-14.5 555.89-13.48 554.93-12.45 553.66-11.74 552.39-11.04 550.95-10.58 549.51-10.13 547.98-9.94 546.46-9.74 545.02-9.74L545.02-9.74Q543.18-9.74 541.4-10 539.62-10.25 537.89-10.82L537.89-10.82Q538.16-9.2 538.74-7.75 539.33-6.3 540.3-5.21 541.28-4.13 542.71-3.49 544.14-2.86 546.09-2.86L546.09-2.86Q547.38-2.86 548.56-3.25 549.73-3.64 550.7-4.35 551.68-5.05 552.43-6.03 553.17-7.01 553.63-8.2L553.63-8.2 557.2-6.88Q556.39-4.96 554.99-3.55 553.59-2.15 551.82-1.23 550.05-0.32 548.06 0.12 546.07 0.56 544.11 0.56L544.11 0.56Q540.89 0.56 538.16-0.52 535.42-1.61 533.44-3.56 531.47-5.52 530.34-8.23 529.22-10.94 529.22-14.16L529.22-14.16Q529.22-17.38 530.34-20.09 531.47-22.8 533.44-24.76 535.42-26.71 538.16-27.8 540.89-28.88 544.11-28.88L544.11-28.88Q545.68-28.88 547.31-28.66 548.95-28.44 550.48-27.97 552.02-27.49 553.39-26.73 554.76-25.98 555.77-24.87 556.78-23.75 557.38-22.29 557.98-20.83 557.98-18.95ZM585.95-35.01L585.95-35.01Q585.95-34.08 585.6-33.25 585.25-32.42 584.63-31.81 584.02-31.2 583.19-30.85 582.36-30.49 581.44-30.49L581.44-30.49Q580.51-30.49 579.69-30.85 578.87-31.2 578.26-31.81 577.65-32.42 577.3-33.25 576.94-34.08 576.94-35.01L576.94-35.01Q576.94-35.94 577.3-36.76 577.65-37.57 578.26-38.18 578.87-38.79 579.69-39.15 580.51-39.5 581.44-39.5L581.44-39.5Q582.36-39.5 583.19-39.15 584.02-38.79 584.63-38.18 585.25-37.57 585.6-36.76 585.95-35.94 585.95-35.01ZM585.59-28.17L585.59 0 577.31 0 577.31-28.17 585.59-28.17ZM621.33-16.16L621.33-16.16Q621.33-13.31 620.63-10.21 619.94-7.1 618.69-4.13 617.44-1.15 615.71 1.48 613.98 4.1 611.9 6.01L611.9 6.01 608.8 4.32Q609.46 3.1 610.05 1.59 610.63 0.07 611.11-1.62 611.59-3.32 611.96-5.13 612.34-6.93 612.6-8.7 612.86-10.47 612.99-12.15 613.12-13.82 613.12-15.26L613.12-15.26Q613.12-16.21 613.05-17.3 612.98-18.38 612.75-19.47 612.51-20.56 612.12-21.56 611.73-22.56 611.09-23.32 610.44-24.07 609.52-24.54 608.61-25 607.36-25L607.36-25Q606.14-25 605.19-24.45 604.24-23.9 603.5-23.01 602.77-22.12 602.25-20.97 601.72-19.82 601.39-18.62 601.06-17.41 600.92-16.24 600.77-15.06 600.77-14.14L600.77-14.14 600.77 0 592.49 0 592.49-28.2 595.67-28.2 599.45-21.63Q600.14-23.27 601.16-24.61 602.19-25.95 603.48-26.9 604.77-27.86 606.35-28.37 607.92-28.88 609.75-28.88L609.75-28.88Q612.68-28.88 614.86-27.93 617.03-26.98 618.47-25.28 619.91-23.58 620.62-21.25 621.33-18.92 621.33-16.16ZM675.55-17.63L675.55-17.63Q675.55-15.06 674.86-12.76 674.18-10.45 672.95-8.5 671.71-6.54 670-4.97 668.29-3.39 666.23-2.29 664.17-1.2 661.81-0.6 659.46 0 656.97 0L656.97 0 641.46 0 641.46-35.16 656.97-35.16Q659.46-35.16 661.8-34.57 664.14-33.98 666.21-32.9 668.27-31.81 669.99-30.25 671.71-28.69 672.95-26.75 674.18-24.8 674.86-22.5 675.55-20.19 675.55-17.63ZM665.71-17.63L665.71-17.63Q665.71-20.48 665.01-23.06 664.31-25.63 662.85-27.59 661.39-29.54 659.13-30.69 656.87-31.84 653.72-31.84L653.72-31.84 651.16-31.84 651.16-3.42 653.72-3.42Q656.82-3.42 659.08-4.58 661.34-5.74 662.81-7.7 664.29-9.67 665-12.23 665.71-14.79 665.71-17.63ZM710.31-10.74L710.31-10.74Q710.31-8.47 709.73-6.74 709.16-5 708.12-3.74 707.09-2.47 705.67-1.61 704.25-0.76 702.58-0.24 700.91 0.27 699.04 0.49 697.17 0.71 695.24 0.71L695.24 0.71Q692.71 0.71 690.56 0.33 688.41-0.05 686.52-0.87 684.62-1.68 682.88-2.98 681.13-4.27 679.4-6.13L679.4-6.13 684.38-11.18Q685.06-9.5 686.26-8.07 687.46-6.64 688.89-5.62 690.31-4.59 691.85-4 693.39-3.42 694.76-3.42L694.76-3.42Q696.37-3.42 697.78-3.65 699.2-3.88 700.25-4.42 701.3-4.96 701.9-5.85 702.5-6.74 702.5-8.08L702.5-8.08Q702.5-9.11 702.03-9.84 701.57-10.57 700.82-11.1 700.08-11.62 699.13-11.99 698.17-12.35 697.19-12.61 696.2-12.87 695.24-13.07 694.29-13.28 693.56-13.5L693.56-13.5Q692.12-13.92 690.56-14.39 688.99-14.87 687.48-15.48 685.97-16.09 684.61-16.88 683.26-17.68 682.23-18.76 681.21-19.85 680.6-21.28 679.99-22.71 679.99-24.56L679.99-24.56Q679.99-26.78 680.54-28.5 681.08-30.22 682.09-31.49 683.09-32.76 684.45-33.63 685.82-34.5 687.46-35.02 689.09-35.55 690.94-35.78 692.78-36.01 694.71-36.01L694.71-36.01Q697.34-36.01 699.51-35.52 701.67-35.03 703.5-34.13 705.33-33.23 706.85-31.97 708.38-30.71 709.72-29.17L709.72-29.17 704.74-24.12Q704.16-25.88 703.12-27.29 702.08-28.71 700.81-29.72 699.54-30.74 698.15-31.29 696.76-31.84 695.46-31.84L695.46-31.84Q693.78-31.84 692.36-31.6 690.95-31.37 689.93-30.85 688.92-30.32 688.36-29.43 687.8-28.54 687.8-27.22L687.8-27.22Q687.8-26.17 688.21-25.44 688.63-24.71 689.32-24.19 690.02-23.68 690.9-23.35 691.78-23.02 692.72-22.78 693.66-22.53 694.57-22.35 695.49-22.17 696.25-21.95L696.25-21.95Q697.71-21.53 699.32-21.07 700.93-20.61 702.5-19.98 704.06-19.36 705.47-18.55 706.89-17.75 707.96-16.64 709.04-15.53 709.67-14.07 710.31-12.62 710.31-10.74ZM732.3-30.66L732.3 0 722.61 0 722.61-30.66 713.04-30.66 713.04-35.16 741.87-35.16 741.87-30.66 732.3-30.66ZM749.27-35.16L756.37-35.16Q755.71-33.18 755.23-31.07 754.74-28.96 754.42-26.84 754.1-24.73 753.94-22.68 753.78-20.63 753.78-18.8L753.78-18.8Q753.78-17.46 753.8-15.78 753.81-14.11 753.99-12.38 754.18-10.64 754.59-9 755.01-7.35 755.82-6.05 756.64-4.76 757.92-3.98 759.2-3.2 761.11-3.2L761.11-3.2Q762.79-3.2 764-3.77 765.21-4.35 766.05-5.32 766.9-6.3 767.4-7.57 767.9-8.84 768.18-10.23 768.46-11.62 768.54-13.05 768.63-14.48 768.63-15.77L768.63-15.77 768.63-35.16 778.32-35.16 778.32-17.29Q778.32-13.45 777.1-10.16 775.88-6.86 773.66-4.43 771.44-2 768.29-0.62 765.14 0.76 761.3 0.76L761.3 0.76Q758.67 0.76 756.4 0.01 754.13-0.73 752.23-2.04 750.34-3.34 748.87-5.14 747.39-6.93 746.4-9.06 745.41-11.18 744.9-13.54 744.39-15.89 744.43-18.31L744.43-18.31 744.43-18.8Q744.46-20.75 744.82-22.84 745.19-24.93 745.81-27.03 746.44-29.13 747.32-31.19 748.19-33.25 749.27-35.16L749.27-35.16Z" opacity="1" transform="matrix(1,0,0,1,0,0)" fill="#a437db" class="slogan-text-1" data-fill-palette-color="secondary" id="text-1"></path></svg></g></svg></g></svg></g></svg></g></svg></g></svg></g><path d="M271.135 41.215L271.135 0 23.935 0 23.935 247.2 271.135 247.2 271.135 205.985 265.816 205.985 265.816 241.882 29.253 241.882 29.253 5.318 265.816 5.318 265.816 41.215Z" fill="#a437db" stroke="transparent" data-fill-palette-color="tertiary"></path></svg></g><defs></defs></svg><rect width="395.52" height="247.2" fill="none" stroke="none" visibility="hidden"></rect></g></svg></g></svg>